<svg xmlns="http://www.w3.org/2000/svg" width="1200" height="420" viewBox="0 0 1200 420" role="img" aria-labelledby="title desc">
  <title id="title">BioSymphony Structure Factory workflow</title>
  <desc id="desc">An agent workflow from biological goal to target setup, agent lanes, execution gates, checked outputs, candidate rankings, reports, and figures.</desc>
  <defs>
    <linearGradient id="top" x1="0" y1="0" x2="1" y2="1">
      <stop offset="0" stop-color="#ecfeff"/>
      <stop offset="1" stop-color="#f8fafc"/>
    </linearGradient>
    <filter id="shadow" x="-20%" y="-20%" width="140%" height="140%">
      <feDropShadow dx="0" dy="8" stdDeviation="10" flood-color="#0f172a" flood-opacity="0.14"/>
    </filter>
    <marker id="arrow" viewBox="0 0 10 10" refX="8.5" refY="5" markerWidth="7" markerHeight="7" orient="auto-start-reverse">
      <path d="M 0 0 L 10 5 L 0 10 z" fill="#0f766e"/>
    </marker>
  </defs>
  <rect width="1200" height="420" rx="0" fill="url(#top)"/>
  <g fill="none" stroke="#0f766e" stroke-width="4" marker-end="url(#arrow)">
    <path d="M 201 200 H 290"/>
    <path d="M 410 200 H 498"/>
    <path d="M 620 200 H 708"/>
    <path d="M 830 200 H 918"/>
    <path d="M 1038 200 C 1095 200 1128 240 1128 289 C 1128 342 1083 372 1029 372 H 172 C 117 372 72 342 72 289 C 72 247 99 217 142 206"/>
  </g>
  <g filter="url(#shadow)">
    <rect x="42" y="92" width="178" height="154" rx="12" fill="#ffffff" stroke="#99f6e4"/>
    <rect x="252" y="92" width="178" height="154" rx="12" fill="#ffffff" stroke="#bfdbfe"/>
    <rect x="462" y="92" width="178" height="154" rx="12" fill="#ffffff" stroke="#c7d2fe"/>
    <rect x="672" y="92" width="178" height="154" rx="12" fill="#ffffff" stroke="#fed7aa"/>
    <rect x="882" y="92" width="178" height="154" rx="12" fill="#ffffff" stroke="#bbf7d0"/>
  </g>
  <g font-family="Inter, ui-sans-serif, system-ui, -apple-system, BlinkMacSystemFont, Segoe UI, sans-serif" fill="#0f172a">
    <text x="70" y="133" font-size="20" font-weight="700">1. Goal</text>
    <text x="70" y="164" font-size="15">Target, accession,</text>
    <text x="70" y="185" font-size="15">screening goal, or</text>
    <text x="70" y="206" font-size="15">mapping task.</text>
    <text x="280" y="133" font-size="20" font-weight="700">2. Plan</text>
    <text x="280" y="164" font-size="15">Target window, lanes,</text>
    <text x="280" y="185" font-size="15">tools, constraints,</text>
    <text x="280" y="206" font-size="15">and run plan.</text>
    <text x="490" y="133" font-size="20" font-weight="700">3. Agent Lanes</text>
    <text x="490" y="164" font-size="15">Design, fold, score,</text>
    <text x="490" y="185" font-size="15">render, screen,</text>
    <text x="490" y="206" font-size="15">and iterate.</text>
    <text x="700" y="133" font-size="20" font-weight="700">4. Compute</text>
    <text x="700" y="164" font-size="15">Start local, then</text>
    <text x="700" y="185" font-size="15">scale selected lanes</text>
    <text x="700" y="206" font-size="15">to cloud.</text>
    <text x="910" y="133" font-size="20" font-weight="700">5. Outputs</text>
    <text x="910" y="164" font-size="15">Candidates, rankings,</text>
    <text x="910" y="185" font-size="15">structure reports,</text>
    <text x="910" y="206" font-size="15">and figures.</text>
    <text x="370" y="319" text-anchor="middle" font-size="17" font-weight="700" fill="#115e59">Built for agent teams</text>
    <text x="370" y="341" text-anchor="middle" font-size="13" fill="#334155">Split complex biology work into lanes, handoffs,</text>
    <text x="370" y="360" text-anchor="middle" font-size="13" fill="#334155">checks, and resumable runs.</text>
    <text x="829" y="319" text-anchor="middle" font-size="17" font-weight="700" fill="#115e59">From laptop to cloud</text>
    <text x="829" y="345" text-anchor="middle" font-size="14" fill="#334155">Start locally, then scale selected lanes when ready.</text>
  </g>
</svg>
